<?xml version="1.0" encoding="UTF-8" standalone="no"?>
<!-- Generator: Adobe Illustrator 16.0.0, SVG Export Plug-In . SVG Version: 6.00 Build 0)  -->

<svg
   xmlns:dc="http://purl.org/dc/elements/1.1/"
   xmlns:cc="http://creativecommons.org/ns#"
   xmlns:rdf="http://www.w3.org/1999/02/22-rdf-syntax-ns#"
   xmlns:svg="http://www.w3.org/2000/svg"
   xmlns="http://www.w3.org/2000/svg"
   xmlns:xlink="http://www.w3.org/1999/xlink"
   xmlns:sodipodi="http://sodipodi.sourceforge.net/DTD/sodipodi-0.dtd"
   xmlns:inkscape="http://www.inkscape.org/namespaces/inkscape"
   version="1.1"
   id="Layer_1"
   x="0px"
   y="0px"
   width="367.19992mm"
   height="130.21719mm"
   viewBox="0 0 1387.8424 492.15946"
   enable-background="new 0 0 1312.248 1053.104"
   xml:space="preserve"
   sodipodi:docname="cbi-a4-header-logo.svg"
   inkscape:version="0.92.2 (5c3e80d, 2017-08-06)"><metadata
     id="metadata5549"><rdf:RDF><cc:Work
         rdf:about=""><dc:format>image/svg+xml</dc:format><dc:type
           rdf:resource="http://purl.org/dc/dcmitype/StillImage" /><dc:title></dc:title></cc:Work></rdf:RDF></metadata><defs
     id="defs5547" /><sodipodi:namedview
     pagecolor="#ffffff"
     bordercolor="#666666"
     borderopacity="1"
     objecttolerance="10"
     gridtolerance="10"
     guidetolerance="10"
     inkscape:pageopacity="0"
     inkscape:pageshadow="2"
     inkscape:window-width="1920"
     inkscape:window-height="1001"
     id="namedview5545"
     showgrid="false"
     fit-margin-top="0"
     fit-margin-left="0"
     fit-margin-right="0"
     fit-margin-bottom="0"
     inkscape:zoom="0.38362783"
     inkscape:cx="401.97145"
     inkscape:cy="507.68722"
     inkscape:window-x="-9"
     inkscape:window-y="-9"
     inkscape:window-maximized="1"
     inkscape:current-layer="Layer_1"
     inkscape:pagecheckerboard="false"
     showborder="true"
     units="mm" /><rect
     y="-60.472534"
     width="1387.8422"
     height="551.85046"
     id="rect5193"
     x="0"
     style="fill:none;fill-opacity:1;stroke:none;stroke-width:0.74445277" /><g
     id="g5209"
     transform="matrix(1.1522126,0,0,1.2318129,-21.859486,-346.2881)"><polygon
       points="987.619,462.71 965.955,485.487 987.619,508.626 1009.631,485.487 "
       id="polygon5195"
       style="fill:#ffffff" /><g
       id="g5203"><path
         d="m 591.547,430.581 c 6.572,0.316 -0.373,-0.516 -3.639,-0.209 1.119,0.065 2.205,0.129 3.639,0.209 m 92.594,-0.355 c 0.336,-0.809 3.025,-0.43 4.484,-0.67 -1.09,1.261 -2.578,0.162 -4.484,0.67 m -6.936,0.111 c 0.457,-0.271 3.205,-1.045 3.094,-0.34 -0.549,0.369 -2.018,0.25 -3.094,0.34 m 37.889,-3.531 c -1.129,-0.781 2.113,-0.412 2.742,-1.041 1.682,0.57 -2.719,0.478 -2.742,1.041 m -161.42,-1.061 c -0.619,0.43 -2.5,-0.109 -3.615,-0.061 0.615,-0.435 2.502,0.112 3.615,0.061 m 187.646,-6.623 c 1.293,-1.172 5.2,-1.101 0,0 m 2.795,-5.443 c 2.201,-1.941 7.291,-2.201 11.279,-4.311 -0.697,0.607 -2.676,1.43 -4.9,2.195 -2.228,0.846 -4.678,1.536 -6.379,2.116 m -0.547,-0.28 c -2.689,1.461 -6.471,1.807 -8.826,2.404 1.662,-1.099 6.51,-1.595 8.826,-2.404 m 9.991,-9.644 c -0.252,0.65 -2.424,1.184 -3.451,1.74 0.29,-0.625 2.437,-1.15 3.451,-1.74 m -10.959,1.721 c -0.471,0.564 -3.166,0.674 -3.137,1.191 -1.381,-0.342 2.506,-1.211 3.137,-1.191 m -3.971,1 c -1.469,0.846 -3.844,1.32 -6.354,1.84 -2.52,0.451 -5.211,0.762 -7.406,1.262 -0.92,0 -1.512,1.496 -1.904,0.561 1.555,-0.781 4.459,-1.441 7.498,-1.961 3.029,-0.593 6.199,-1.122 8.166,-1.702 m -208.703,-4.233 c 0.184,-0.221 2.199,0.1 0.697,-0.359 0.66,-0.91 0.824,0.379 1.904,0.359 -0.334,0.451 -2.058,0.41 -2.601,0 m 0.396,-0.59 c -1.338,-0.049 -0.406,-1.492 0.785,-0.975 -0.105,0.215 -0.658,0.084 -0.697,0.359 0.35,0.296 0.088,0.337 -0.088,0.616 m -3.265,-2.351 c 0.396,-0.26 0.416,-0.471 -0.242,-0.639 1.158,-0.291 2.48,-0.096 3.576,0.084 -1.289,0.399 -1.95,0.695 -3.334,0.555 m 217.461,-5.813 c 0.248,-0.521 -0.416,-0.641 -1.139,-0.199 1.119,-0.602 2.303,-1.01 3.432,-1.432 1.047,-0.49 2.061,-0.984 2.865,-1.65 0.043,0.73 -0.941,1.35 -2.055,1.896 -1.125,0.536 -2.506,0.901 -3.103,1.385 m 2.777,-2.5 c 0.01,-0.23 0.016,-0.461 -0.295,-0.346 0.193,-0.416 2.287,-1.902 2.893,-1.301 -1.022,0.171 -1.764,1.016 -2.598,1.647 m -11.182,-1.822 c -0.213,0.541 -2.215,0.98 -2.656,0.451 0.912,-0.07 1.897,-0.461 2.656,-0.451 m -17.636,0.555 c 0.451,-0.789 1.285,-0.359 2.268,-0.914 0.382,0.779 -1.581,0.58 -2.268,0.914 m 6.63,-4.096 c -0.141,-0.75 1.197,-0.25 2.123,-0.762 -0.49,0.473 -1.357,0.811 -2.123,0.762 m -129.886,2.035 c 2.182,-0.805 12.938,-0.199 15.152,0.576 -5.652,0.229 -10.557,-0.636 -15.152,-0.576 m -4.983,-1.115 c 1.242,-0.221 2.254,0.676 2.852,0.17 1.289,0.59 -3.287,0.58 -2.852,-0.17 m -14.607,-0.529 c -4.148,-0.566 -9.373,-0.766 -13.629,-1.188 0,-0.443 1.143,-0.008 1.609,-0.084 -2.492,-0.871 -7.076,-0.58 -10.432,-1.42 7.654,0.139 15.172,1.871 22.549,1.871 z m -17.666,39.644 c -7.605,-0.838 -13.736,-1.723 -22.098,-1.938 0.576,-0.6 2.529,-0.141 3.945,-0.1 -1.992,-1.666 -9.297,-0.611 -10.789,-2.533 -1.211,0.047 -1.332,-0.469 -2.545,-0.42 0.408,-0.428 1.629,-0.229 2.041,-0.658 -0.117,-1.666 -4.42,-1.186 -5.549,-2.326 1.018,-0.076 3.285,0.859 5.074,1.035 2.51,-1.881 -2.41,-5.783 1.313,-7.379 -0.945,-0.91 0.762,-1.102 0.006,-2.496 0.174,-0.531 -1.832,0.049 -1.207,-0.721 0.795,0.09 0.582,-0.205 0.029,-0.205 0.383,-0.666 0.609,-0.049 1.639,-0.074 0.547,-0.322 -0.252,-1.32 1.158,-1.361 -0.029,-0.43 -1.41,-0.17 -1.557,-0.541 0.363,-0.398 0.529,-0.949 1.426,-0.92 -0.742,-0.346 -0.141,-0.43 -0.559,-0.67 1.576,-0.611 2.434,-1.871 3.984,-3 -0.18,-0.486 -1.799,-0.232 -2.549,-0.422 0.34,-0.279 2.365,-0.141 0.373,-0.381 0.111,-0.525 1.129,-0.324 1.992,-0.258 -0.795,-0.691 -0.354,-0.832 -1.799,-1.184 0.02,-0.518 0.592,-0.598 0.785,-0.979 -2.574,-1.15 -0.367,-2.061 -1.119,-3.832 -0.969,0.891 -3.791,0.801 -5.594,0.375 0.141,-0.42 1.426,0.064 1.668,-0.285 -3.471,-0.68 2.453,-0.744 4.305,-0.471 -0.834,-0.418 -0.084,-0.555 -0.477,-1.291 l 1.285,0.105 c 0.383,-1.086 -2.287,-0.615 -1.711,-1.805 0.697,-0.039 0.572,0.344 0.563,0.67 l 3.543,0.289 c 0.639,-0.709 0.518,-0.889 1.158,-1.359 -0.082,-0.471 -1.576,-0.211 -2.23,-0.391 -0.785,-0.346 1.619,-0.07 1.988,-0.25 -1.436,-0.16 -0.814,-1.371 -2.055,-1.625 0.105,-0.447 0.861,-0.375 1.656,-0.285 -0.533,-0.297 -1.25,-0.506 -1.496,-0.951 -0.287,0.154 -0.898,0.049 -1.023,0.33 -0.756,-0.461 1.783,-0.24 1.164,-1.361 1.027,0.24 3.93,1.092 3.711,1.342 6.104,-0.09 10.164,-1.146 16.979,-1.143 5.928,0 14.076,0.797 20.76,0.893 15.791,0.25 32.42,2.695 48.619,2.342 -0.078,-0.291 -0.771,-0.211 -1.236,-0.262 0.723,-0.762 2.428,-0.818 4.42,-0.689 -0.02,0.203 -0.393,0.148 -0.635,0.189 13.924,1.811 28.873,2.217 45.439,1.48 0.557,-0.061 0.145,-0.711 0.557,-0.855 2.951,0.555 14.123,0.824 18.85,-0.695 -0.107,0.189 -0.213,0.391 -0.533,0.449 5.555,-0.299 11.221,-0.744 16.785,-1.385 5.617,-0.586 11.084,-1.416 16.275,-2.365 0.184,0.51 -0.66,0.605 -1.305,0.77 0.795,0.15 1.793,-0.01 2.869,-0.305 -1.918,1.436 -6.863,0.645 -9.18,2.301 1.105,0.525 1.92,-0.4 3.316,-0.254 -0.781,0.568 -2.541,0.729 -3.617,1.154 0.121,0.234 0.559,0.084 0.893,0.055 -1.061,0.725 -4.799,1.482 -6.781,1.791 3.18,-0.148 4.527,-0.174 7.988,-0.74 0.33,0.91 -0.867,0.061 -1.6,0.506 1.322,0.336 2.99,0.1 4.633,-0.084 -0.736,-0.547 -1.434,0.16 -2.631,-0.076 0.484,-0.6 2.385,-0.6 3.426,-0.955 -0.857,0.469 -0.275,0.49 -0.445,1.166 1.061,-0.086 4.119,-0.316 5.195,-0.811 0.238,0.859 2.986,0.178 4.697,-0.457 -0.988,0.621 -0.131,0.752 1.051,0.342 0.234,0.283 -0.072,0.4 0.045,0.65 1.59,-0.172 2.941,-0.32 3.9,-0.422 -3.023,1.561 -7.639,1.938 -13.678,3.223 0.078,0.195 0.402,0.08 0.635,0.08 -1.512,0.604 -4.832,0.6 -6.867,1.17 3.078,0.73 7.691,-1.23 9.582,-1.16 -0.014,0.451 -1.217,0.471 -1.143,0.941 0.697,0.209 1.803,-0.232 2.641,-0.242 -1.246,0.611 -3.137,0.947 -5.045,1.252 -1.877,0.336 -3.785,0.629 -5.139,1.17 0.252,0.43 1.822,-0.359 1.063,0.445 1.139,-0.375 3.033,-1.1 3.488,-0.695 0.965,0.715 -1.973,0.6 -2.84,0.791 2.938,0.5 7.779,-0.621 12.676,-1.881 -1.262,1.271 -3.68,0.91 -6.438,1.861 0.494,0.689 2.211,-0.223 3.305,-0.383 0.049,0.275 -1.037,0.672 0.166,0.393 -0.238,0.51 -1.508,0.42 -2.434,1.049 1.066,0.252 2.637,-0.209 3.801,-0.094 -1.445,-0.414 0.217,-0.02 0.406,-0.535 0.393,0.029 0.02,0.941 1.42,0.279 0.16,0.439 -1.197,0.4 -1.662,0.65 0.324,0.59 1.924,-0.471 2.113,0.326 -0.494,0.17 -0.916,-0.137 -0.893,0.225 1.018,0.281 2.846,-0.715 4.145,-0.98 -0.285,0.42 -1.105,0.701 -1.818,1.01 0.506,0.242 1.576,-0.314 2.211,-0.24 -1.662,0.891 -5.424,0.92 -6.791,1.881 1.227,0.006 2.133,-0.484 3.975,-0.801 -1.283,0.365 0.635,1.32 1.043,0.795 0.965,0.006 -0.52,0.758 -1.334,0.801 0.428,0.258 1.164,0.211 1.998,-0.113 0.975,0.125 -1.697,0.658 -2.342,0.859 0.746,0.291 2.41,-0.59 3.219,-0.465 0.586,0.494 -0.51,0.555 -1.027,0.766 0.236,0.42 1.332,-0.311 1.914,-0.371 1.125,-0.15 -2.395,1.381 -2.219,0.451 -0.646,0.539 1.074,0.68 1.682,0.611 -1.867,0.689 -5.545,1.371 -6.787,2.01 2.531,0.199 7.775,-2.561 9.021,-1.816 -0.215,0.566 -2.129,0.756 -3.025,1.143 0.15,0.453 1.158,-0.24 1.658,-0.271 0.979,0.375 -2.951,0.68 -2.744,0.986 -0.834,0.125 0.055,-0.631 0.771,-0.631 -3.166,0.139 -4.148,0.98 -7.115,1.33 -0.033,-0.48 1.754,-0.35 1.361,-0.941 -1.633,0.547 -2.316,1.582 -4.23,1.563 2.088,0.15 3.189,-0.25 5.637,-0.611 -0.828,0.941 -2.623,1.191 -4.328,1.4 1.25,0.285 3.406,-0.279 5.283,-0.775 -3,2.027 -9.195,2.438 -12.404,4.488 1.459,-0.08 1.861,0.1 4.076,-0.311 -0.701,0.586 -2.844,1.391 -3.795,1.32 5.143,0.295 12.016,-1.215 18.646,-3.066 -1.969,1.135 -0.994,0.256 0.359,0.775 -1.561,0.439 -3.137,0.82 -4.697,1.23 2.932,0.066 3.926,-0.791 6.471,-1.551 0,0 -0.314,0.33 -0.576,0.4 1.457,-0.436 3.422,-0.99 5.926,-1.451 -1.869,0.955 -4.453,1.521 -7.221,2.191 -2.777,0.5 -5.738,1.146 -8.492,1.766 0.883,0.68 3.592,-0.609 4.973,-0.545 0.393,0.131 -0.969,0.58 -2.666,1.049 -1.701,0.396 -3.717,0.861 -4.666,1.082 1.672,0.51 3.77,0.529 8.254,-0.84 0.732,-0.311 -0.543,-0.201 0.096,-0.67 1.596,-0.42 3.189,-0.813 4.789,-1.332 0.059,0.24 -0.547,0.355 -0.936,0.512 0.252,0.408 1.504,-0.365 2.162,-0.441 0.717,-0.35 -0.566,-0.18 0.043,-0.686 1.736,-0.939 2.908,0.025 3.863,-1.016 -1.404,0.98 -6.557,3.082 -9.854,4.023 2.293,-0.102 -1.73,1.18 -0.688,0.18 -2.201,1.141 -3.814,1.205 -7.465,2.141 1.223,0.67 -3.082,0.574 -4.711,1.33 0.068,0.189 0.471,0.08 0.756,0.076 -1.885,0.52 -5.055,1.484 -8.143,1.977 3.602,-0.092 6.975,-1.307 10.756,-1.813 -2.139,0.951 -6.621,2.131 -8.816,2.361 0.357,0.896 1.875,-0.154 1.947,0.555 -1.967,0.496 -2.932,0.445 -4.793,1.137 3.945,0.355 10.262,-1.381 15.291,-2.256 -0.406,0.824 -1.777,0.564 -0.373,1.154 -2.955,-0.209 -5.094,0.939 -9.285,1.73 4.197,-0.18 7.885,-1.52 11.156,-1.92 -2.791,1.25 -7.211,1.785 -10.168,2.813 -0.514,0.18 0.213,0.229 0.164,0.6 -10.643,2.641 -20.012,3.861 -29.488,4.713 -9.48,0.828 -19.072,1.219 -30.195,1.609 -0.115,0.35 0.277,0.385 0.693,0.404 -0.639,0.391 -3.229,0.227 -3.412,-0.369 -2.535,-0.135 -8.643,0.494 -7.465,0.465 -28.373,1.131 -65.219,0.441 -94.357,-3.896 -1.257,-0.056 -0.099,-0.175 -0.253,-0.638 m -25.82,-20.537 c -1.293,-0.225 -1.139,0.76 -0.465,1.002 0.765,-0.365 -0.19,-0.691 0.465,-1.002 m 193.476,-12.666 c 2.088,-0.439 4.313,-0.76 6.285,-1.25 -1.918,-0.395 -4.09,0.59 -6.285,1.25 m 7.623,27.543 -0.145,-0.395 c 0.32,-0.035 0.314,-0.15 0.285,-0.275 0.82,0.355 0.539,0.115 1.877,-0.189 0.862,0.021 -1.366,0.67 -2.017,0.859 m 14.695,-15.986 c -1.012,0.34 -3.154,1.5 -4.59,1.449 0.762,-0.709 3.327,-1.145 4.59,-1.449 m -6.367,-1.112 c 0,0.5 -1.711,0.611 -2.4,0.961 -1.531,0.1 2.273,-0.779 0.742,-0.676 -0.16,-0.375 1.236,-0.205 1.658,-0.285 m 12.93,-6.257 c -0.6,0.686 -1.59,1.135 -2.66,1.576 -1.115,0.371 -2.307,0.725 -3.354,1.361 0.698,-1.471 4.061,-1.316 6.014,-2.937 m -6.563,2.705 c -1.215,1.297 -4.479,1.803 -6.881,2.598 0.776,-0.921 4.489,-1.145 6.881,-2.598 m -5.169,-2.344 c -0.703,0.898 -2.691,0.879 -3.787,1.135 0.859,-0.6 2.787,-0.6 3.787,-1.135 m -15.549,-1.252 c -0.549,0.727 -2.561,0.627 -2.807,-0.014 0.742,0.225 1.75,0.219 2.807,0.014 m -114.037,-7.188 c 0.605,-1.471 4.178,0.17 5.051,-0.211 -1.188,0.581 -3.465,-0.148 -5.051,0.211 m -23.235,-2.248 c -0.719,0.707 -5.236,0.051 -4.723,-0.494 -1.008,-0.041 -1.439,0.381 -2.578,0.24 2.133,-1.08 4.178,0.372 7.301,0.254"
         id="path5197"
         inkscape:connector-curvature="0"
         style="fill:#ffffff" /><path
         d="m 578.994,467.399 c 6.494,0.314 -0.379,-0.52 -3.605,-0.209 1.099,0.067 2.179,0.125 3.605,0.209 m 91.236,1.911 c 0.33,-0.814 2.99,-0.434 4.436,-0.674 -1.086,1.26 -2.555,0.16 -4.436,0.674 m -6.863,0.105 c 0.457,-0.271 3.176,-1.041 3.064,-0.336 -0.542,0.365 -1.997,0.25 -3.064,0.336 m 37.467,-3.527 c -1.115,-0.785 2.094,-0.414 2.719,-1.039 1.662,0.564 -2.69,0.474 -2.719,1.039 m -159.621,-1.059 c -0.605,0.43 -2.467,-0.115 -3.572,-0.066 0.611,-0.43 2.472,0.111 3.572,0.066 m 185.56,-6.629 c 1.28,-1.17 5.139,-1.101 0,0 m 2.764,-5.441 c 2.176,-1.943 7.207,-2.197 11.152,-4.313 -0.693,0.613 -2.646,1.43 -4.848,2.199 -2.198,0.84 -4.628,1.532 -6.304,2.114 m -0.543,-0.276 c -2.66,1.459 -6.398,1.805 -8.725,2.404 1.643,-1.105 6.432,-1.595 8.725,-2.404 m 9.877,-9.65 c -0.246,0.648 -2.398,1.189 -3.406,1.74 0.281,-0.625 2.408,-1.15 3.406,-1.74 m -10.832,1.721 c -0.471,0.57 -3.137,0.676 -3.102,1.191 -1.367,-0.342 2.477,-1.211 3.102,-1.191 m -3.926,1 c -1.453,0.852 -3.805,1.326 -6.287,1.842 -2.496,0.449 -5.152,0.764 -7.322,1.26 -0.912,0 -1.494,1.494 -1.887,0.561 1.537,-0.781 4.412,-1.436 7.422,-1.961 2.99,-0.591 6.125,-1.122 8.074,-1.702 M 517.73,441.321 c 0.184,-0.219 2.172,0.102 0.693,-0.359 0.654,-0.906 0.809,0.385 1.881,0.365 -0.325,0.451 -2.031,0.404 -2.574,-0.006 m 0.399,-0.59 c -1.328,-0.045 -0.398,-1.484 0.775,-0.971 -0.107,0.211 -0.654,0.086 -0.693,0.355 0.344,0.296 0.082,0.337 -0.082,0.616 m -3.234,-2.345 c 0.398,-0.266 0.412,-0.471 -0.236,-0.645 1.143,-0.291 2.451,-0.092 3.533,0.09 -1.276,0.395 -1.924,0.69 -3.297,0.555 m 215.044,-5.813 c 0.236,-0.525 -0.418,-0.641 -1.135,-0.201 1.109,-0.605 2.273,-1.016 3.402,-1.434 1.033,-0.492 2.031,-0.982 2.826,-1.652 0.049,0.736 -0.93,1.352 -2.025,1.896 -1.12,0.54 -2.482,0.905 -3.068,1.391 m 2.739,-2.508 c 0.014,-0.223 0.014,-0.453 -0.285,-0.338 0.193,-0.422 2.258,-1.902 2.854,-1.301 -1.005,0.165 -1.741,1.011 -2.569,1.639 m -11.051,-1.818 c -0.213,0.539 -2.191,0.979 -2.633,0.447 0.902,-0.068 1.877,-0.457 2.633,-0.447 m -17.443,0.555 c 0.441,-0.787 1.264,-0.355 2.244,-0.916 0.377,0.779 -1.561,0.58 -2.244,0.916 m 6.556,-4.098 c -0.145,-0.75 1.184,-0.25 2.094,-0.762 -0.479,0.473 -1.338,0.811 -2.094,0.762 m -128.439,2.041 c 2.16,-0.809 12.795,-0.201 14.977,0.568 -5.585,0.233 -10.432,-0.632 -14.977,-0.568 m -19.369,-1.65 c -4.109,-0.566 -9.268,-0.766 -13.484,-1.186 0.006,-0.445 1.135,-0.01 1.6,-0.086 -2.467,-0.869 -6.998,-0.58 -10.318,-1.42 7.566,0.141 15.002,1.875 22.301,1.871 z m -17.202,38.593 c -7.523,-0.84 -13.852,-0.666 -22.125,-0.887 0.576,-0.6 2.506,-0.141 3.906,-0.094 -1.969,-1.672 -9.199,-0.617 -10.674,-2.537 -1.191,0.051 -1.318,-0.465 -2.516,-0.42 0.408,-0.43 1.609,-0.23 2.021,-0.66 -0.115,-1.666 -4.371,-1.182 -5.486,-2.326 0.998,-0.07 3.248,0.859 5.012,1.035 2.482,-1.881 -2.379,-5.777 1.299,-7.375 -0.939,-0.914 0.756,-1.104 0.01,-2.5 0.174,-0.529 -1.813,0.049 -1.197,-0.719 0.785,0.094 0.578,-0.201 0.035,-0.201 0.377,-0.672 0.6,-0.055 1.617,-0.074 0.539,-0.326 -0.252,-1.326 1.145,-1.367 -0.029,-0.43 -1.391,-0.166 -1.541,-0.541 0.359,-0.398 0.527,-0.949 1.416,-0.918 -0.738,-0.348 -0.146,-0.432 -0.553,-0.672 1.555,-0.609 2.404,-1.865 3.936,-3 -0.176,-0.482 -1.775,-0.23 -2.521,-0.422 0.34,-0.279 2.336,-0.141 0.373,-0.379 0.102,-0.52 1.121,-0.32 1.963,-0.26 -0.779,-0.691 -0.344,-0.832 -1.773,-1.182 0.02,-0.52 0.586,-0.6 0.775,-0.98 -2.539,-1.15 -0.363,-2.055 -1.105,-3.832 -0.959,0.891 -3.75,0.801 -5.525,0.381 0.137,-0.42 1.406,0.061 1.648,-0.285 -3.441,-0.682 2.414,-0.746 4.25,-0.475 -0.828,-0.416 -0.076,-0.557 -0.469,-1.293 l 1.27,0.105 c 0.377,-1.084 -2.264,-0.613 -1.691,-1.801 0.693,-0.043 0.566,0.346 0.557,0.672 l 3.5,0.285 c 0.631,-0.705 0.508,-0.893 1.145,-1.361 -0.078,-0.471 -1.561,-0.211 -2.201,-0.391 -0.775,-0.34 1.6,-0.07 1.967,-0.25 -1.42,-0.16 -0.813,-1.371 -2.039,-1.627 0.111,-0.443 0.857,-0.373 1.643,-0.279 -0.523,-0.295 -1.23,-0.506 -1.479,-0.955 -0.275,0.154 -0.887,0.049 -1.008,0.336 -0.752,-0.461 1.76,-0.246 1.148,-1.367 1.018,0.24 3.887,1.096 3.674,1.346 6.029,-0.094 10.043,-1.145 16.779,-1.145 5.865,0 13.92,0.801 20.531,0.895 15.617,0.246 32.063,2.697 48.076,2.338 -0.078,-0.291 -0.762,-0.211 -1.227,-0.26 0.717,-0.762 2.41,-0.822 4.373,-0.691 -0.02,0.205 -0.389,0.15 -0.631,0.189 13.779,1.811 28.557,2.223 44.939,1.48 0.553,-0.055 0.141,-0.709 0.549,-0.854 2.922,0.555 13.973,0.824 18.641,-0.697 -0.107,0.189 -0.209,0.391 -0.529,0.461 5.492,-0.311 11.1,-0.75 16.602,-1.391 5.553,-0.592 10.963,-1.416 16.096,-2.371 0.184,0.51 -0.65,0.605 -1.289,0.775 0.785,0.145 1.77,-0.016 2.84,-0.305 -1.91,1.43 -6.791,0.641 -9.084,2.301 1.096,0.525 1.896,-0.4 3.277,-0.26 -0.771,0.574 -2.51,0.729 -3.572,1.16 0.121,0.23 0.549,0.08 0.877,0.051 -1.047,0.723 -4.74,1.48 -6.703,1.791 3.141,-0.15 4.479,-0.17 7.9,-0.742 0.33,0.91 -0.857,0.066 -1.58,0.506 1.309,0.336 2.957,0.105 4.586,-0.084 -0.732,-0.547 -1.42,0.16 -2.607,-0.072 0.475,-0.6 2.359,-0.6 3.387,-0.959 -0.848,0.469 -0.275,0.49 -0.445,1.17 1.053,-0.09 4.076,-0.32 5.143,-0.811 0.232,0.861 2.951,0.18 4.648,-0.459 -0.984,0.619 -0.137,0.754 1.037,0.34 0.229,0.289 -0.072,0.404 0.043,0.65 1.566,-0.172 2.914,-0.32 3.859,-0.422 -2.992,1.563 -7.553,1.938 -13.529,3.223 0.078,0.195 0.393,0.08 0.627,0.08 -1.488,0.609 -4.775,0.6 -6.791,1.17 3.043,0.73 7.609,-1.23 9.48,-1.16 -0.02,0.449 -1.207,0.471 -1.129,0.945 0.684,0.211 1.777,-0.23 2.607,-0.24 -1.232,0.605 -3.102,0.945 -4.992,1.246 -1.857,0.34 -3.742,0.631 -5.08,1.17 0.252,0.43 1.803,-0.359 1.057,0.451 1.125,-0.381 2.996,-1.105 3.445,-0.701 0.955,0.721 -1.947,0.602 -2.805,0.791 2.908,0.5 7.691,-0.621 12.527,-1.877 -1.244,1.266 -3.635,0.906 -6.357,1.857 0.484,0.695 2.18,-0.221 3.262,-0.381 0.059,0.275 -1.018,0.672 0.164,0.391 -0.236,0.51 -1.488,0.42 -2.398,1.049 1.051,0.256 2.602,-0.209 3.75,-0.094 -1.43,-0.414 0.219,-0.02 0.402,-0.535 0.393,0.029 0.02,0.941 1.412,0.285 0.148,0.434 -1.188,0.4 -1.645,0.645 0.316,0.596 1.9,-0.471 2.08,0.33 -0.484,0.172 -0.902,-0.141 -0.877,0.221 1.008,0.281 2.811,-0.715 4.1,-0.98 -0.281,0.42 -1.096,0.701 -1.803,1.01 0.504,0.246 1.561,-0.314 2.186,-0.24 -1.639,0.896 -5.359,0.926 -6.707,1.881 1.211,0.01 2.107,-0.484 3.926,-0.799 -1.266,0.371 0.625,1.32 1.031,0.799 0.955,0 -0.518,0.756 -1.318,0.797 0.422,0.256 1.148,0.209 1.973,-0.115 0.961,0.125 -1.676,0.66 -2.316,0.859 0.742,0.291 2.385,-0.584 3.186,-0.459 0.58,0.49 -0.5,0.549 -1.014,0.76 0.232,0.422 1.309,-0.311 1.891,-0.369 1.109,-0.15 -2.371,1.379 -2.195,0.449 -0.641,0.545 1.066,0.68 1.662,0.609 -1.842,0.691 -5.486,1.371 -6.709,2.012 2.502,0.199 7.688,-2.561 8.914,-1.816 -0.209,0.57 -2.1,0.756 -2.98,1.146 0.145,0.451 1.133,-0.24 1.633,-0.27 0.965,0.373 -2.918,0.68 -2.715,0.984 -0.818,0.125 0.059,-0.635 0.766,-0.635 -3.131,0.139 -4.1,0.98 -7.037,1.33 -0.033,-0.475 1.736,-0.35 1.348,-0.936 -1.613,0.545 -2.287,1.576 -4.178,1.557 2.061,0.154 3.145,-0.246 5.574,-0.611 -0.824,0.941 -2.598,1.197 -4.285,1.4 1.23,0.285 3.363,-0.279 5.225,-0.775 -2.971,2.025 -9.098,2.438 -12.262,4.488 1.439,-0.08 1.842,0.1 4.021,-0.311 -0.688,0.59 -2.811,1.391 -3.746,1.32 5.084,0.301 11.881,-1.215 18.434,-3.061 -1.943,1.135 -0.98,0.25 0.357,0.77 -1.541,0.441 -3.096,0.826 -4.648,1.236 2.908,0.061 3.883,-0.795 6.404,-1.555 0,0 -0.311,0.328 -0.572,0.4 1.449,-0.432 3.383,-0.982 5.863,-1.451 -1.85,0.953 -4.404,1.523 -7.143,2.199 -2.744,0.49 -5.676,1.141 -8.395,1.762 0.867,0.68 3.547,-0.611 4.914,-0.551 0.393,0.131 -0.955,0.58 -2.637,1.051 -1.682,0.4 -3.674,0.861 -4.615,1.08 1.658,0.51 3.729,0.531 8.162,-0.834 0.729,-0.316 -0.537,-0.201 0.098,-0.676 1.576,-0.42 3.156,-0.807 4.74,-1.33 0.053,0.238 -0.543,0.354 -0.93,0.51 0.242,0.41 1.482,-0.367 2.131,-0.439 0.719,-0.352 -0.557,-0.176 0.055,-0.682 1.711,-0.945 2.873,0.02 3.814,-1.021 -1.391,0.98 -6.48,3.084 -9.742,4.023 2.268,-0.1 -1.711,1.18 -0.684,0.18 -2.176,1.145 -3.771,1.205 -7.383,2.141 1.213,0.672 -3.047,0.576 -4.656,1.33 0.066,0.189 0.465,0.08 0.746,0.076 -1.861,0.525 -4.992,1.484 -8.051,1.977 3.557,-0.092 6.896,-1.307 10.639,-1.813 -2.123,0.951 -6.549,2.131 -8.729,2.367 0.363,0.889 1.861,-0.16 1.934,0.555 -1.943,0.496 -2.898,0.439 -4.736,1.131 3.902,0.361 10.145,-1.381 15.117,-2.256 -0.402,0.824 -1.758,0.564 -0.367,1.154 -2.928,-0.209 -5.037,0.941 -9.186,1.736 4.154,-0.184 7.799,-1.525 11.031,-1.926 -2.752,1.252 -7.125,1.787 -10.057,2.813 -0.5,0.186 0.209,0.234 0.164,0.605 -10.521,2.635 -19.783,3.855 -29.158,4.707 -9.369,0.83 -18.859,1.221 -29.855,1.609 -0.117,0.355 0.271,0.385 0.688,0.41 -0.635,0.385 -3.193,0.221 -3.379,-0.369 -2.51,-0.141 -8.539,0.494 -7.381,0.459 -38.73,1.568 -59.543,-1.775 -79.105,-1.068 -1.246,0.045 -14.303,-3.004 -14.447,-3.463 m -25.537,-20.535 c -1.285,-0.227 -1.131,0.764 -0.461,1.004 0.752,-0.371 -0.194,-0.693 0.461,-1.004 m 191.312,-12.662 c 2.066,-0.443 4.266,-0.766 6.225,-1.256 -1.906,-0.394 -4.053,0.592 -6.225,1.256 m 7.543,27.543 -0.146,-0.4 c 0.316,-0.029 0.311,-0.145 0.287,-0.275 0.805,0.361 0.527,0.121 1.852,-0.189 0.851,0.018 -1.348,0.669 -1.993,0.864 m 14.529,-15.992 c -1.002,0.34 -3.121,1.5 -4.541,1.451 0.762,-0.711 3.288,-1.141 4.541,-1.451 m -6.295,-1.112 c 0.004,0.5 -1.691,0.611 -2.375,0.961 -1.512,0.105 2.254,-0.781 0.736,-0.676 -0.159,-0.374 1.223,-0.203 1.639,-0.285 m 12.786,-6.252 c -0.596,0.686 -1.57,1.135 -2.631,1.57 -1.105,0.371 -2.283,0.73 -3.316,1.361 0.689,-1.47 4.013,-1.315 5.947,-2.931 m -6.491,2.702 c -1.201,1.301 -4.424,1.801 -6.809,2.6 0.776,-0.925 4.444,-1.149 6.809,-2.6 m -5.117,-2.346 c -0.688,0.904 -2.65,0.885 -3.742,1.135 0.848,-0.6 2.758,-0.6 3.742,-1.135 m -15.375,-1.246 c -0.537,0.721 -2.525,0.619 -2.771,-0.02 0.732,0.229 1.73,0.221 2.771,0.02 m -112.76,-7.193 c 0.596,-1.467 4.133,0.17 4.996,-0.211 -1.171,0.58 -3.431,-0.149 -4.996,0.211"
         id="path5199"
         inkscape:connector-curvature="0"
         style="fill:#79c143" /><path
         d="m 742.342,384.704 c -1.773,0.182 -3.688,0.602 -5.709,0.938 -2.021,0.35 -4.207,0.754 -6.428,0.715 4.553,-0.631 7.053,-1.902 10.115,-1.492 -1.395,-0.67 0.016,-0.354 0.592,-1.24 -5.477,0.75 -12.471,2.393 -16.629,1.822 2.084,-0.666 3.111,-0.57 5.287,-1.021 0.025,-0.77 -1.754,0.295 -2.012,-0.68 2.4,-0.15 7.344,-1.24 9.801,-2.217 -4.139,0.449 -7.92,1.596 -11.793,1.545 1.697,-0.223 3.422,-0.529 4.988,-0.838 1.566,-0.383 2.977,-0.717 4.027,-0.971 -0.305,0 -0.75,0.104 -0.799,-0.107 1.881,-0.795 6.441,-0.465 5.254,-1.244 4.07,-0.961 5.801,-0.951 8.342,-2.121 -1.295,1.09 3.246,-0.301 0.775,-0.189 1.861,-0.592 4.23,-1.262 6.387,-2.143 2.162,-0.889 4.053,-1.762 4.9,-2.301 -1.207,1.096 -2.287,0.111 -4.328,1.182 -0.752,0.58 0.66,0.359 -0.18,0.764 -0.727,0.125 -2.209,0.957 -2.385,0.471 0.438,-0.145 1.096,-0.24 1.086,-0.525 l -5.365,1.375 c -0.766,0.525 0.615,0.406 -0.223,0.748 -5.021,1.34 -7.27,1.299 -8.98,0.703 2.107,-0.443 9.01,-1.725 8.234,-2.125 -1.475,-0.039 -4.59,1.146 -5.43,0.455 6.113,-1.221 13.174,-2.15 17.566,-4.217 -2.758,0.449 -4.979,1.221 -6.627,1.686 0.301,-0.064 0.699,-0.449 0.699,-0.449 -2.859,0.744 -4.086,1.709 -7.223,1.635 l 5.27,-1.33 c -1.348,-0.611 -2.561,0.365 -0.242,-0.852 -7.471,2.102 -15.09,3.287 -20.619,2.877 1.014,0.105 3.465,-0.705 4.318,-1.311 -2.463,0.377 -2.875,0.166 -4.463,0.211 1.914,-1.096 4.551,-1.637 7.172,-2.207 2.623,-0.65 5.244,-1.252 7.037,-2.271 -2.127,0.41 -4.564,1.051 -5.863,0.697 1.885,-0.182 3.873,-0.482 4.953,-1.416 -2.734,0.279 -3.988,0.75 -6.232,0.529 2.078,0.061 2.994,-1.055 4.865,-1.621 0.324,0.65 -1.594,0.48 -1.648,0.996 3.291,-0.295 4.523,-1.156 7.965,-1.346 -0.781,0 -1.881,0.83 -0.961,0.701 -0.17,-0.387 4.141,-0.605 3.166,-1.027 -0.559,0.01 -1.783,0.717 -1.852,0.236 1.051,-0.371 3.15,-0.551 3.475,-1.221 -0.301,-0.221 -0.91,-0.18 -1.691,0.02 -0.789,0.15 -1.76,0.42 -2.777,0.73 -2.035,0.6 -4.275,1.34 -5.623,1.131 1.488,-0.521 5.564,-1.461 7.736,-2.092 -0.678,0.031 -2.516,-0.119 -1.711,-0.715 -0.373,1.012 3.752,-0.555 2.502,-0.436 -0.627,0.102 -1.979,0.797 -2.152,0.352 0.605,-0.207 1.813,-0.23 1.279,-0.781 -0.873,-0.201 -2.846,0.76 -3.596,0.445 0.727,-0.24 3.74,-0.766 2.709,-0.912 -0.98,0.297 -1.77,0.391 -2.186,0.096 0.877,-0.07 2.66,-0.82 1.604,-0.859 -0.563,0.541 -2.443,-0.486 -0.984,-0.9 -2.059,0.355 -3.135,0.9 -4.469,0.9 1.643,-1.121 5.803,-1.021 7.75,-2.07 -0.664,-0.051 -1.924,0.59 -2.447,0.273 0.873,-0.273 1.783,-0.654 2.176,-1.115 -1.424,0.381 -3.674,1.314 -4.705,1.061 0.043,-0.395 0.445,-0.061 1.002,-0.25 -0.043,-0.869 -1.986,0.305 -2.225,-0.35 0.549,-0.279 2.021,-0.236 1.939,-0.721 -1.662,0.73 -1.072,-0.275 -1.498,-0.311 -0.311,0.57 -2.045,0.141 -0.553,0.596 -1.227,-0.094 -3.053,0.365 -4.197,0.035 1.154,-0.635 2.549,-0.5 2.898,-1.08 -1.367,0.309 -0.102,-0.131 -0.105,-0.432 -1.213,0.215 -3.35,1.061 -3.738,0.34 3.297,-0.879 5.793,-0.629 7.459,-1.959 -2.83,0.66 -5.568,1.375 -8.107,1.67 -2.496,0.375 -4.674,0.521 -6.291,0.164 1.002,-0.184 4.283,0.076 3.32,-0.754 -0.412,-0.42 -2.705,0.24 -4.033,0.641 0.988,-0.861 -0.902,-0.041 -1.109,-0.516 3.203,-1.07 8.768,-1.137 11.826,-2.393 -0.896,0.045 -2.273,0.441 -2.996,0.195 -0.006,-0.533 1.371,-0.488 1.482,-0.965 -2.143,-0.154 -7.633,1.926 -10.977,1.016 1.182,-0.311 2.723,-0.4 4.201,-0.49 1.449,-0.145 2.826,-0.299 3.717,-0.619 -0.256,0 -0.639,0.119 -0.688,-0.09 3.48,-0.592 6.5,-1.111 9.176,-1.566 2.525,-0.576 4.797,-1.08 6.527,-2.006 -0.936,0.199 -2.582,0.24 -4.299,0.539 -0.076,-0.27 0.271,-0.408 0.078,-0.73 -1.348,0.502 -2.244,0.381 -1.063,-0.344 -1.963,0.756 -5.254,1.414 -5.297,0.516 -1.25,0.584 -4.828,0.705 -6.006,0.82 0.326,-0.736 -0.318,-0.76 0.732,-1.271 -1.246,0.371 -3.354,0.395 -4.057,0.984 1.352,0.326 2.24,-0.484 2.971,0.137 -1.855,0.219 -3.857,0.35 -5.283,-0.021 0.922,-0.459 2.109,0.482 1.91,-0.504 -4.023,0.535 -5.578,0.514 -9.229,0.564 2.316,-0.26 6.729,-0.949 8.047,-1.74 -0.383,0.023 -0.906,0.17 -1,-0.07 1.281,-0.465 3.389,-0.516 4.354,-1.166 -1.527,-0.139 -2.709,0.766 -3.854,0.186 1.547,-0.826 3.605,-1.051 5.652,-1.242 1.027,-0.088 2.064,-0.158 2.98,-0.309 0.877,-0.189 1.666,-0.439 2.277,-0.83 -1.275,0.32 -2.352,0.557 -3.301,0.34 0.834,-0.141 1.744,-0.285 1.658,-0.836 -12.273,2.018 -25.863,2.848 -38.648,3.047 0.383,-0.064 0.523,-0.27 0.664,-0.469 -5.633,1.369 -58.264,0.934 -74.084,-1.332 0.275,-0.041 0.707,0.027 0.727,-0.191 -2.258,-0.189 -38.525,-0.98 -58.996,-1.83 -7.66,-0.318 -15.883,-1.746 -23.465,-1.688 -2.016,1.43 -6.953,1.137 -9.688,1.604 l 0.223,6.508 -16.275,1.9 c 0,0 -1.986,4.963 1.299,5.678 -0.131,0.436 -0.77,0.631 -0.658,1.176 1.74,0.096 1.27,0.324 2.332,0.906 -0.99,0.094 -2.207,0.074 -2.197,0.641 2.309,-0.115 -0.014,0.113 -0.328,0.475 0.896,0.059 2.666,-0.531 2.971,-0.035 -1.479,1.471 -2.119,2.961 -3.674,3.887 0.508,0.18 -0.111,0.379 0.779,0.6 -0.969,0.141 -1.012,0.75 -1.289,1.232 0.252,0.359 1.658,-0.166 1.783,0.285 -1.482,0.295 -0.387,1.199 -0.871,1.639 -1.063,0.215 -1.479,-0.41 -1.682,0.387 0.557,-0.121 0.857,0.15 0.029,0.219 -0.438,0.92 1.459,-0.078 1.43,0.525 1.123,1.326 -0.572,1.826 0.619,2.617 -3.246,2.33 2.502,5.572 0.533,7.979 -1.695,0.1 -3.615,-0.316 -4.482,-0.064 0.639,0.471 1.77,0.369 2.816,0.35 0.988,-0.045 2.219,0.139 2.412,0.98 -0.262,0.535 -1.453,0.504 -1.646,1.051 1.012,-0.271 1.289,0.266 2.346,0 1.545,1.691 8.482,-0.355 10.818,1.26 -1.416,0.109 -3.49,-0.211 -3.912,0.535 8.26,-0.766 14.904,-0.164 22.984,0.334 0.207,0.492 -1.004,0.676 0.334,0.682 31.262,3.322 71.268,4.938 101.973,4.691 -1.279,0.016 5.369,-0.508 8.088,-0.229 0.17,0.654 2.963,0.916 3.68,0.516 -0.451,-0.031 -0.873,-0.076 -0.736,-0.451 12.029,0.025 22.396,-0.004 32.639,-0.477 10.246,-0.5 20.346,-1.33 32.008,-3.709 0.102,-0.4 -0.645,-0.502 -0.088,-0.662 3.32,-1.056 8.05,-1.345 11.234,-2.677 m 4.822,-31.369 c -2.404,0.414 -4.754,0.941 -7.26,1.311 2.66,-0.616 5.11,-1.866 7.26,-1.311 M 522.48,368.698 c -0.775,-0.131 -1.188,-1.141 0.262,-1.141 -0.631,0.45 0.471,0.61 -0.262,1.141"
         id="path5201"
         inkscape:connector-curvature="0"
         style="fill:#f6851f" /></g><path
       d="m 1173.926,573.29 c -3.525,-2.844 -7.645,-5.396 -12.336,-7.656 -4.707,-2.244 -9.609,-4.064 -14.736,-5.445 v -10.311 h 70.152 l -16.023,-25.912 h -175.523 -1.291 -79.429 -2.563 -21.141 c -0.223,-8.246 -1.018,-15.357 -2.408,-21.35 -1.393,-5.99 -3.797,-11.822 -7.211,-17.527 -2.984,-4.504 -6.195,-8.145 -9.611,-10.891 -3.416,-2.75 -6.615,-5.008 -9.605,-6.773 -3.629,-1.959 -7.041,-3.535 -10.248,-4.715 0,0 10.248,17.619 9.611,41.531 -0.166,6.291 0.637,12.852 0.637,19.725 H 766.32 745.82 589.512 l 16.012,25.912 h 11.855 v 103.66 l 28.828,25.631 v -65.385 l 24.021,-16.496 c 6.184,-4.309 11.578,-7.502 16.174,-9.566 4.59,-2.064 8.701,-3.334 12.334,-3.826 3.625,-0.488 6.887,-0.344 9.766,0.443 2.883,0.787 5.816,1.961 8.803,3.533 4.271,2.152 7.217,5.346 8.818,9.566 1.598,4.225 2.182,9.084 1.766,14.582 -0.438,5.496 -1.879,11.479 -4.33,17.957 -2.453,6.486 -5.6,13.168 -9.445,20.033 -4.059,7.061 -5.719,12.564 -4.975,16.486 0.75,3.93 2.303,6.879 4.654,8.834 2.771,2.164 6.609,3.438 11.531,3.838 6.834,-12.379 12.594,-22.584 17.295,-30.639 4.691,-8.041 8.324,-15.01 10.885,-20.9 2.566,-5.891 4.121,-11.336 4.645,-16.346 0.529,-5.01 0.061,-10.754 -1.441,-17.229 -1.275,-5.105 -3.57,-9.775 -6.879,-13.984 -3.316,-4.225 -7.209,-7.906 -11.693,-11.047 -4.486,-3.141 -9.342,-5.545 -14.576,-7.211 -5.234,-1.668 -10.408,-2.506 -15.529,-2.506 -6.629,0 -13.357,1.32 -20.186,3.969 -6.832,2.654 -13.131,5.699 -18.895,9.131 -5.771,3.439 -10.732,6.729 -14.898,9.869 -4.164,3.143 -6.783,5.111 -7.844,5.891 v -38.289 h 115.629 20.502 109.863 v 38.289 c -1.068,-0.779 -3.686,-2.748 -7.842,-5.891 -4.168,-3.141 -9.129,-6.43 -14.898,-9.869 -5.766,-3.432 -12.063,-6.477 -18.895,-9.131 -6.842,-2.648 -13.564,-3.969 -20.188,-3.969 -5.121,0 -10.355,0.838 -15.693,2.506 -5.34,1.666 -10.303,4.07 -14.895,7.211 -4.594,3.141 -8.545,6.822 -11.846,11.047 -3.316,4.209 -5.395,8.879 -6.24,13.984 -1.727,9.428 -1.771,17.965 -0.172,25.623 1.604,7.656 4.104,14.477 7.527,20.467 3.42,5.984 7.418,11.236 12.014,15.758 4.59,4.516 25.074,23.172 50.18,23.172 22.936,0 33.795,-13.16 40.947,-17.875 1.623,-1.068 3.76,-1.738 6.1,-2.254 l 22.736,20.205 v -25.613 -41.141 -62.52 h 36.199 3.838 12.172 v 103.66 l 28.826,25.631 V 549.878 h 38.119 1.602 79.109 v 8.537 c -0.424,0.203 -0.91,0.297 -1.441,0.297 -0.535,0 -1.01,0.111 -1.434,0.305 -5.764,1.172 -12.121,2.846 -19.063,5 -6.934,2.16 -13.508,4.316 -19.691,6.479 -7.047,2.551 -14.209,5.203 -21.461,7.951 l 7.049,14.719 c 7.244,-2.539 13.023,-4.607 17.293,-6.182 4.264,-1.564 8.217,-2.889 11.85,-3.969 3.627,-1.076 7.471,-2.016 11.529,-2.807 4.059,-0.779 9.5,-1.664 16.34,-2.643 9.605,-1.572 17.771,-0.842 24.502,2.211 6.721,3.045 10.088,7.408 10.088,13.094 v 22.979 c -9.83,-8.049 -19.811,-13.699 -29.947,-16.934 -10.15,-3.234 -19.857,-4.615 -29.15,-4.121 -9.287,0.488 -17.826,2.551 -25.623,6.174 -7.807,3.637 -14.094,8.256 -18.906,13.85 -4.803,5.594 -7.895,11.83 -9.283,18.703 -1.391,6.871 -0.266,13.738 3.359,20.615 3.207,6.477 7.699,11.684 13.457,15.609 5.768,3.924 12.176,6.77 19.221,8.529 7.047,1.77 14.459,2.551 22.258,2.359 7.799,-0.192 15.326,-1.133 22.586,-2.799 7.256,-1.666 13.979,-3.979 20.174,-6.918 6.189,-2.943 11.219,-6.188 15.059,-9.717 l 25.631,18.26 v -86.871 c 0,-3.344 -1.025,-6.674 -3.041,-10.021 -2.043,-3.341 -4.811,-6.431 -8.332,-9.277 m -322.299,88.791 c -12.014,0 -19.9,-4.727 -26.846,-12.811 -6.033,-7.01 -10.574,-14.377 -13.459,-22.24 -2.883,-7.842 -3.686,-15.449 -2.398,-22.82 1.277,-7.359 5.328,-12.805 12.17,-16.338 2.988,-1.572 6.086,-2.652 9.285,-3.238 3.207,-0.596 7.314,-0.152 12.336,1.316 5.021,1.473 11.479,4.381 19.381,8.689 7.896,4.322 17.932,10.711 30.105,19.145 v 29.158 c -7.258,11.381 -23.353,19.139 -40.574,19.139 m 304.836,-17.672 c -3.418,2.754 -8.061,5.404 -13.928,7.953 -5.883,2.555 -12.172,4.709 -18.908,6.482 -6.723,1.768 -13.443,2.852 -20.178,3.236 -6.723,0.396 -12.605,-0.197 -17.615,-1.771 -5.021,-1.566 -8.807,-4.311 -11.363,-8.238 -2.572,-3.928 -3.002,-9.326 -1.289,-16.193 1.49,-6.283 5.127,-11.049 10.883,-14.283 5.773,-3.236 12.604,-4.957 20.508,-5.16 7.904,-0.189 16.443,1.129 25.623,3.977 9.186,2.846 17.939,7.219 26.268,13.109 v 10.888 z"
       id="path5205"
       inkscape:connector-curvature="0"
       style="fill:#ffffff" /><path
       d="m 572.855,656.464 c 13.41,-24.756 10.236,-48.693 -9.35,-86.156 1.055,-1.709 1.695,-2.578 1.023,-3.496 -4.27,-5.916 -7.746,-16.783 -11.23,-26.033 -9.172,-24.33 -12.021,-40.133 -10.313,-72.572 0,0 16.68,0 16.926,0 2.449,0 4.924,-1.828 4.924,-6.625 1.998,0 6.432,-2.326 6.432,-8.293 0,-6.535 -9.863,-10.436 -13.26,-11.32 -0.605,-0.15 -1.379,-0.436 -1.621,-0.738 -1.428,-2.438 -4.023,-3.988 -6.926,-4.777 v -0.125 c 0,0 6.969,-1.295 6.969,-6.055 0,-4.986 -5.32,-6.082 -5.32,-6.082 12.307,-38.102 28.912,-46.408 29.078,-53.795 0.246,-10.949 -7.629,-16.543 -20.154,-16.543 h -6.408 v -4.008 c 0,-3.631 -3.533,-5.512 -7.703,-5.512 h -11.893 c -0.771,-0.535 -1.561,-1.131 -2.291,-1.77 -5.088,-4.443 -7.322,-11.725 -5.738,-13.521 0.352,-0.396 0.902,-0.594 1.65,-0.594 h 0.008 c 2.193,0 6.113,1.943 9.939,6.254 0.75,0.846 1.406,1.697 2.033,2.537 l 1.268,1.721 1.002,-1.924 c 2.184,-4.246 3.34,-9.109 3.34,-14.092 0,-5.164 -1.246,-10.221 -3.611,-14.625 l -1.053,-1.955 -1.236,1.809 c -0.645,0.934 -1.361,1.848 -2.162,2.756 -5.129,5.76 -10.197,7.229 -11.594,5.646 -1.568,-1.766 0.242,-7.787 5.014,-13.191 0.754,-0.844 1.518,-1.635 2.314,-2.316 l 1.598,-1.375 -1.746,-1.141 c -3.83,-2.502 -8.617,-3.742 -13.012,-3.717 -4.395,-0.025 -9.182,1.215 -13.014,3.717 l -1.746,1.141 1.6,1.375 c 0.797,0.682 1.559,1.473 2.313,2.316 4.771,5.404 6.584,11.426 5.014,13.191 -1.396,1.582 -6.463,0.113 -11.592,-5.646 -0.803,-0.908 -1.52,-1.822 -2.164,-2.756 l -1.234,-1.809 -1.053,1.955 c -2.367,4.404 -3.611,9.461 -3.611,14.625 0,4.982 1.156,9.846 3.338,14.092 l 1.002,1.924 1.27,-1.721 c 0.625,-0.84 1.283,-1.691 2.031,-2.537 3.828,-4.311 7.746,-6.254 9.941,-6.254 h 0.008 c 0.746,0 1.297,0.197 1.65,0.594 1.582,1.797 -0.652,9.078 -5.738,13.521 -0.73,0.639 -1.52,1.234 -2.291,1.77 h -11.893 c -4.17,0 -7.703,1.881 -7.703,5.512 v 4.008 h -6.41 c -12.525,0 -20.398,5.594 -20.152,16.543 0.164,7.387 16.771,15.693 29.076,53.795 0,0 -5.318,1.096 -5.318,6.082 0,4.76 6.969,6.055 6.969,6.055 v 0.125 c -2.902,0.789 -5.498,2.34 -6.928,4.777 -0.24,0.303 -1.016,0.588 -1.619,0.738 -3.396,0.885 -13.262,4.785 -13.262,11.32 0,5.967 4.436,8.293 6.432,8.293 0,4.797 2.475,6.625 4.924,6.625 0.248,0 16.928,0 16.928,0 1.707,32.439 -1.143,48.242 -10.314,72.572 -3.482,9.25 -6.959,20.117 -11.23,26.033 -0.67,0.918 -0.029,1.787 1.023,3.496 -19.584,37.463 -22.76,61.4 -9.35,86.156 -0.738,0 -12.033,-0.033 -13.656,-0.033 0,3.279 0,21.238 0,21.238 h 66.762 66.762 c 0,0 0,-17.959 0,-21.238 -1.628,0 -12.921,0.033 -13.662,0.033 z"
       id="path5207"
       inkscape:connector-curvature="0"
       style="fill:#ffffff" /></g><line
     stroke-miterlimit="10"
     x1="162.90665"
     y1="346.49768"
     x2="162.90665"
     y2="346.33536"
     id="line5211"
     style="fill:none;stroke:#000000;stroke-width:1.20858192;stroke-miterlimit:10" /><path
     stroke-miterlimit="10"
     d="m 171.98462,353.66061 c -0.63317,-0.19482 -1.45639,-0.56628 -1.72405,-0.95852"
     id="path5213"
     inkscape:connector-curvature="0"
     style="fill:none;stroke:#000000;stroke-width:1.20858192;stroke-miterlimit:10" /><g
     id="g5542"
     transform="matrix(1.2867747,0.01707413,-0.01960341,1.3601132,-88.378099,-414.22805)"
     inkscape:transform-center-x="-12.59645"
     inkscape:transform-center-y="-0.49319319"><g
       id="g5225"><g
         id="g5223"><defs
           id="defs5216"><rect
             id="SVGID_1_"
             x="106.824"
             y="460.409"
             width="321.254"
             height="198.69501" /></defs><clipPath
           id="SVGID_2_"><use
             xlink:href="#SVGID_1_"
             overflow="visible"
             id="use5218"
             style="overflow:visible"
             x="0"
             y="0"
             width="100%"
             height="100%" /></clipPath><path
           clip-path="url(#SVGID_2_)"
           d="m 397.16,463.692 -32.461,-3.283 -29.24,104.623 h -0.105 -207.04 l -21.489,23.277 230.884,70.795 85.107,-152.061 c 3.324,-4.426 5.263,-9.961 5.263,-15.949 -0.001,-14.552 -7.2,-27.402 -30.919,-27.402"
           id="path5221"
           inkscape:connector-curvature="0"
           style="fill:#0a0808" /></g></g><g
       id="g5242"><defs
         id="defs5228"><path
           id="SVGID_3_"
           d="M 303.077,316.39 H 85.363 v 248.637 h 249.99 V 345.7 l -0.167,-0.059 v -0.496 c 0,-15.912 -13.471,-28.756 -29.509,-28.756 h -2.6 z"
           inkscape:connector-curvature="0" /></defs><clipPath
         id="SVGID_4_"><use
           xlink:href="#SVGID_3_"
           overflow="visible"
           id="use5230"
           style="overflow:visible"
           x="0"
           y="0"
           width="100%"
           height="100%" /></clipPath><linearGradient
         id="SVGID_5_"
         gradientUnits="userSpaceOnUse"
         x1="431.80371"
         y1="4204.3823"
         x2="439.28809"
         y2="4204.3823"
         gradientTransform="matrix(33.4024,0,0,-33.4024,-14337.897,140877.17)"><stop
           offset="0"
           style="stop-color:#ED1C24"
           id="stop5233" /><stop
           offset="0.0016"
           style="stop-color:#ED1C24"
           id="stop5235" /><stop
           offset="1"
           style="stop-color:#A61E22"
           id="stop5237" /></linearGradient><rect
         x="85.362999"
         y="316.39001"
         clip-path="url(#SVGID_4_)"
         width="249.99001"
         height="248.63699"
         id="rect5240"
         style="fill:url(#SVGID_5_)" /></g><g
       id="g5252"><defs
         id="defs5245"><rect
           id="SVGID_6_"
           x="85.362999"
           y="316.39001"
           width="249.99001"
           height="248.63699" /></defs><clipPath
         id="SVGID_7_"><use
           xlink:href="#SVGID_6_"
           overflow="visible"
           id="use5247"
           style="overflow:visible"
           x="0"
           y="0"
           width="100%"
           height="100%" /></clipPath><rect
         x="85.357002"
         y="316.37399"
         clip-path="url(#SVGID_7_)"
         width="24.929001"
         height="24.822001"
         id="rect5250" /></g><g
       id="g5267"><defs
         id="defs5255"><rect
           id="SVGID_8_"
           x="85.362999"
           y="341.20401"
           width="24.931999"
           height="24.783001" /></defs><clipPath
         id="SVGID_9_"><use
           xlink:href="#SVGID_8_"
           overflow="visible"
           id="use5257"
           style="overflow:visible"
           x="0"
           y="0"
           width="100%"
           height="100%" /></clipPath><linearGradient
         id="SVGID_10_"
         gradientUnits="userSpaceOnUse"
         x1="835.24219"
         y1="4655.7964"
         x2="842.72809"
         y2="4655.7964"
         gradientTransform="matrix(3.9716,-3.5219,-3.5219,-3.9716,13180.389,21783.92)"><stop
           offset="0"
           style="stop-color:#FFFFFF"
           id="stop5260" /><stop
           offset="1"
           style="stop-color:#211619"
           id="stop5262" /></linearGradient><polygon
         clip-path="url(#SVGID_9_)"
         points="96.335,378.36 73.07,352.104 99.316,328.823 122.59,355.075 "
         id="polygon5265"
         style="fill:url(#SVGID_10_)" /></g><linearGradient
       id="SVGID_11_"
       gradientUnits="userSpaceOnUse"
       x1="951.60059"
       y1="4800.9077"
       x2="959.08551"
       y2="4800.9077"
       gradientTransform="matrix(3.0743,-2.7743,-2.7743,-3.0743,10517.915,17776.473)"><stop
         offset="0"
         style="stop-color:#FFFFFF"
         id="stop5269" /><stop
         offset="1"
         style="stop-color:#211619"
         id="stop5271" /></linearGradient><polygon
       points="121.493,403.173 97.972,377.095 124.051,353.554 147.572,379.632 "
       id="polygon5274"
       style="fill:url(#SVGID_11_)" /><rect
       x="110.286"
       y="365.97198"
       width="24.969999"
       height="24.775"
       id="rect5276"
       style="fill:none" /><g
       id="g5286"><defs
         id="defs5279"><rect
           id="SVGID_12_"
           x="85.362999"
           y="316.39001"
           width="249.99001"
           height="248.63699" /></defs><clipPath
         id="SVGID_13_"><use
           xlink:href="#SVGID_12_"
           overflow="visible"
           id="use5281"
           style="overflow:visible"
           x="0"
           y="0"
           width="100%"
           height="100%" /></clipPath><rect
         x="85.357002"
         y="365.97198"
         clip-path="url(#SVGID_13_)"
         width="24.929001"
         height="24.775"
         id="rect5284" /></g><g
       id="g5301"><defs
         id="defs5289"><rect
           id="SVGID_14_"
           x="85.362999"
           y="390.755"
           width="24.931999"
           height="24.783001" /></defs><clipPath
         id="SVGID_15_"><use
           xlink:href="#SVGID_14_"
           overflow="visible"
           id="use5291"
           style="overflow:visible"
           x="0"
           y="0"
           width="100%"
           height="100%" /></clipPath><linearGradient
         id="SVGID_16_"
         gradientUnits="userSpaceOnUse"
         x1="924.94922"
         y1="4920.896"
         x2="932.43597"
         y2="4920.896"
         gradientTransform="matrix(2.9982,-2.2486,-2.2486,-2.9982,8393.9678,17233.668)"><stop
           offset="0"
           style="stop-color:#FFFFFF"
           id="stop5294" /><stop
           offset="1"
           style="stop-color:#211619"
           id="stop5296" /></linearGradient><polygon
         clip-path="url(#SVGID_15_)"
         points="94.341,427.503 73.473,399.669 101.321,378.784 122.179,406.616 "
         id="polygon5299"
         style="fill:url(#SVGID_16_)" /></g><g
       id="g5313"><defs
         id="defs5304"><rect
           id="SVGID_17_"
           x="85.362999"
           y="316.39001"
           width="249.99001"
           height="248.63699" /></defs><clipPath
         id="SVGID_18_"><use
           xlink:href="#SVGID_17_"
           overflow="visible"
           id="use5306"
           style="overflow:visible"
           x="0"
           y="0"
           width="100%"
           height="100%" /></clipPath><rect
         x="85.357002"
         y="415.53799"
         clip-path="url(#SVGID_18_)"
         width="24.929001"
         height="24.826"
         id="rect5309" /><rect
         x="185.21201"
         y="316.37399"
         clip-path="url(#SVGID_18_)"
         width="24.940001"
         height="24.822001"
         id="rect5311" /></g><g
       id="g5328"><defs
         id="defs5316"><rect
           id="SVGID_19_"
           x="185.21201"
           y="341.20401"
           width="24.924999"
           height="24.783001" /></defs><clipPath
         id="SVGID_20_"><use
           xlink:href="#SVGID_19_"
           overflow="visible"
           id="use5318"
           style="overflow:visible"
           x="0"
           y="0"
           width="100%"
           height="100%" /></clipPath><linearGradient
         id="SVGID_21_"
         gradientUnits="userSpaceOnUse"
         x1="972.93848"
         y1="4968.894"
         x2="980.42297"
         y2="4968.894"
         gradientTransform="matrix(2.8484,-2.0988,-2.0988,-2.8484,7859.2495,16545.91)"><stop
           offset="0"
           style="stop-color:#FFFFFF"
           id="stop5321" /><stop
           offset="1"
           style="stop-color:#211619"
           id="stop5323" /></linearGradient><polygon
         clip-path="url(#SVGID_20_)"
         points="193.986,377.89 173.38,349.927 201.365,329.29 221.963,357.263 "
         id="polygon5326"
         style="fill:url(#SVGID_21_)" /></g><g
       id="g5338"><defs
         id="defs5331"><rect
           id="SVGID_22_"
           x="85.362999"
           y="316.39001"
           width="249.99001"
           height="248.63699" /></defs><clipPath
         id="SVGID_23_"><use
           xlink:href="#SVGID_22_"
           overflow="visible"
           id="use5333"
           style="overflow:visible"
           x="0"
           y="0"
           width="100%"
           height="100%" /></clipPath><rect
         x="185.21201"
         y="365.97198"
         clip-path="url(#SVGID_23_)"
         width="24.940001"
         height="24.775"
         id="rect5336" /></g><g
       id="g5353"><defs
         id="defs5341"><rect
           id="SVGID_24_"
           x="185.21201"
           y="390.755"
           width="24.924999"
           height="24.783001" /></defs><clipPath
         id="SVGID_25_"><use
           xlink:href="#SVGID_24_"
           overflow="visible"
           id="use5343"
           style="overflow:visible"
           x="0"
           y="0"
           width="100%"
           height="100%" /></clipPath><linearGradient
         id="SVGID_26_"
         gradientUnits="userSpaceOnUse"
         x1="889.17578"
         y1="4768.8608"
         x2="896.66492"
         y2="4768.8608"
         gradientTransform="matrix(3.4477,-2.7731,-2.7731,-3.4477,10356.529,19310.562)"><stop
           offset="0"
           style="stop-color:#FFFFFF"
           id="stop5346" /><stop
           offset="1"
           style="stop-color:#211619"
           id="stop5348" /></linearGradient><polygon
         clip-path="url(#SVGID_25_)"
         points="194.999,427.714 173.111,400.489 200.344,378.571 222.232,405.798 "
         id="polygon5351"
         style="fill:url(#SVGID_26_)" /></g><g
       id="g5363"><defs
         id="defs5356"><rect
           id="SVGID_27_"
           x="85.362999"
           y="316.39001"
           width="249.99001"
           height="248.63699" /></defs><clipPath
         id="SVGID_28_"><use
           xlink:href="#SVGID_27_"
           overflow="visible"
           id="use5358"
           style="overflow:visible"
           x="0"
           y="0"
           width="100%"
           height="100%" /></clipPath><rect
         x="185.21201"
         y="415.53799"
         clip-path="url(#SVGID_28_)"
         width="24.940001"
         height="24.826"
         id="rect5361" /></g><g
       id="g5378"><defs
         id="defs5366"><rect
           id="SVGID_29_"
           x="110.286"
           y="316.39001"
           width="24.999001"
           height="24.813999" /></defs><clipPath
         id="SVGID_30_"><use
           xlink:href="#SVGID_29_"
           overflow="visible"
           id="use5368"
           style="overflow:visible"
           x="0"
           y="0"
           width="100%"
           height="100%" /></clipPath><linearGradient
         id="SVGID_31_"
         gradientUnits="userSpaceOnUse"
         x1="861.31738"
         y1="4778.6851"
         x2="868.80328"
         y2="4778.6851"
         gradientTransform="matrix(3.6048,-2.7788,-2.7788,-3.6048,10299.613,19946.355)"><stop
           offset="0"
           style="stop-color:#FFFFFF"
           id="stop5371" /><stop
           offset="1"
           style="stop-color:#211619"
           id="stop5373" /></linearGradient><polygon
         clip-path="url(#SVGID_30_)"
         points="119.608,353.3 98.295,325.636 125.966,304.296 147.279,331.952 "
         id="polygon5376"
         style="fill:url(#SVGID_31_)" /></g><g
       id="g5390"><defs
         id="defs5381"><rect
           id="SVGID_32_"
           x="85.362999"
           y="316.39001"
           width="249.99001"
           height="248.63699" /></defs><clipPath
         id="SVGID_33_"><use
           xlink:href="#SVGID_32_"
           overflow="visible"
           id="use5383"
           style="overflow:visible"
           x="0"
           y="0"
           width="100%"
           height="100%" /></clipPath><rect
         x="110.295"
         y="341.19601"
         clip-path="url(#SVGID_33_)"
         width="24.997"
         height="24.775"
         id="rect5386" /><rect
         x="110.295"
         y="390.74701"
         clip-path="url(#SVGID_33_)"
         width="24.997"
         height="24.791"
         id="rect5388" /></g><g
       id="g5405"><defs
         id="defs5393"><rect
           id="SVGID_34_"
           x="110.286"
           y="415.53799"
           width="24.999001"
           height="24.826" /></defs><clipPath
         id="SVGID_35_"><use
           xlink:href="#SVGID_34_"
           overflow="visible"
           id="use5395"
           style="overflow:visible"
           x="0"
           y="0"
           width="100%"
           height="100%" /></clipPath><linearGradient
         id="SVGID_36_"
         gradientUnits="userSpaceOnUse"
         x1="844.57422"
         y1="4608.4077"
         x2="852.06012"
         y2="4608.4077"
         gradientTransform="matrix(3.9054,-3.8303,-3.8303,-3.9054,14477.249,21659.332)"><stop
           offset="0"
           style="stop-color:#FFFFFF"
           id="stop5398" /><stop
           offset="1"
           style="stop-color:#211619"
           id="stop5400" /></linearGradient><polygon
         clip-path="url(#SVGID_35_)"
         points="122.545,452.862 97.886,427.706 123.026,403.032 147.69,428.188 "
         id="polygon5403"
         style="fill:url(#SVGID_36_)" /></g><g
       id="g5420"><defs
         id="defs5408"><rect
           id="SVGID_37_"
           x="160.23801"
           y="316.39001"
           width="24.974001"
           height="24.813999" /></defs><clipPath
         id="SVGID_38_"><use
           xlink:href="#SVGID_37_"
           overflow="visible"
           id="use5410"
           style="overflow:visible"
           x="0"
           y="0"
           width="100%"
           height="100%" /></clipPath><linearGradient
         id="SVGID_39_"
         gradientUnits="userSpaceOnUse"
         x1="1015.7637"
         y1="4903.7358"
         x2="1023.2524"
         y2="4903.7358"
         gradientTransform="matrix(2.7768,-2.4015,-2.4015,-2.7768,9128.0918,16385.178)"><stop
           offset="0"
           style="stop-color:#FFFFFF"
           id="stop5413" /><stop
           offset="1"
           style="stop-color:#211619"
           id="stop5415" /></linearGradient><polygon
         clip-path="url(#SVGID_38_)"
         points="170.923,353.569 147.967,327.011 174.527,304.034 197.476,330.585 "
         id="polygon5418"
         style="fill:url(#SVGID_39_)" /></g><g
       id="g5430"><defs
         id="defs5423"><rect
           id="SVGID_40_"
           x="85.362999"
           y="316.39001"
           width="249.99001"
           height="248.63699" /></defs><clipPath
         id="SVGID_41_"><use
           xlink:href="#SVGID_40_"
           overflow="visible"
           id="use5425"
           style="overflow:visible"
           x="0"
           y="0"
           width="100%"
           height="100%" /></clipPath><rect
         x="160.23801"
         y="341.19601"
         clip-path="url(#SVGID_41_)"
         width="24.974001"
         height="24.775"
         id="rect5428" /></g><g
       id="g5445"><defs
         id="defs5433"><rect
           id="SVGID_42_"
           x="160.23801"
           y="365.97198"
           width="24.974001"
           height="24.775" /></defs><clipPath
         id="SVGID_43_"><use
           xlink:href="#SVGID_42_"
           overflow="visible"
           id="use5435"
           style="overflow:visible"
           x="0"
           y="0"
           width="100%"
           height="100%" /></clipPath><linearGradient
         id="SVGID_44_"
         gradientUnits="userSpaceOnUse"
         x1="959.35742"
         y1="4793.9048"
         x2="966.84558"
         y2="4793.9048"
         gradientTransform="matrix(3.0743,-2.7743,-2.7743,-3.0743,10524.588,17776.473)"><stop
           offset="0"
           style="stop-color:#FFFFFF"
           id="stop5438" /><stop
           offset="1"
           style="stop-color:#211619"
           id="stop5440" /></linearGradient><polygon
         clip-path="url(#SVGID_43_)"
         points="171.443,403.173 147.922,377.095 174.001,353.554 197.521,379.632 "
         id="polygon5443"
         style="fill:url(#SVGID_44_)" /></g><g
       id="g5455"><defs
         id="defs5448"><rect
           id="SVGID_45_"
           x="85.362999"
           y="316.39001"
           width="249.99001"
           height="248.63699" /></defs><clipPath
         id="SVGID_46_"><use
           xlink:href="#SVGID_45_"
           overflow="visible"
           id="use5450"
           style="overflow:visible"
           x="0"
           y="0"
           width="100%"
           height="100%" /></clipPath><rect
         x="160.23801"
         y="390.74701"
         clip-path="url(#SVGID_46_)"
         width="24.974001"
         height="24.791"
         id="rect5453" /></g><g
       id="g5470"><defs
         id="defs5458"><rect
           id="SVGID_47_"
           x="160.23801"
           y="415.53799"
           width="24.974001"
           height="24.826" /></defs><clipPath
         id="SVGID_48_"><use
           xlink:href="#SVGID_47_"
           overflow="visible"
           id="use5460"
           style="overflow:visible"
           x="0"
           y="0"
           width="100%"
           height="100%" /></clipPath><linearGradient
         id="SVGID_49_"
         gradientUnits="userSpaceOnUse"
         x1="837.22168"
         y1="4628.4351"
         x2="844.70862"
         y2="4628.4351"
         gradientTransform="matrix(3.9785,-3.6031,-3.6031,-3.9785,13520.158,21857.32)"><stop
           offset="0"
           style="stop-color:#FFFFFF"
           id="stop5463" /><stop
           offset="1"
           style="stop-color:#211619"
           id="stop5465" /></linearGradient><polygon
         clip-path="url(#SVGID_48_)"
         points="171.486,452.788 147.894,426.728 173.958,403.104 197.557,429.177 "
         id="polygon5468"
         style="fill:url(#SVGID_49_)" /></g><g
       id="g5480"><defs
         id="defs5473"><rect
           id="SVGID_50_"
           x="85.362999"
           y="316.39001"
           width="249.99001"
           height="248.63699" /></defs><clipPath
         id="SVGID_51_"><use
           xlink:href="#SVGID_50_"
           overflow="visible"
           id="use5475"
           style="overflow:visible"
           x="0"
           y="0"
           width="100%"
           height="100%" /></clipPath><rect
         x="135.285"
         y="316.37399"
         clip-path="url(#SVGID_51_)"
         width="24.945999"
         height="24.822001"
         id="rect5478" /></g><g
       id="g5495"><defs
         id="defs5483"><rect
           id="SVGID_52_"
           x="135.285"
           y="341.20401"
           width="24.952999"
           height="24.783001" /></defs><clipPath
         id="SVGID_53_"><use
           xlink:href="#SVGID_52_"
           overflow="visible"
           id="use5485"
           style="overflow:visible"
           x="0"
           y="0"
           width="100%"
           height="100%" /></clipPath><linearGradient
         id="SVGID_54_"
         gradientUnits="userSpaceOnUse"
         x1="800.2998"
         y1="4596.5532"
         x2="807.78662"
         y2="4596.5532"
         gradientTransform="matrix(4.4228,-3.898,-3.898,-4.4228,14527.959,23800.682)"><stop
           offset="0"
           style="stop-color:#FFFFFF"
           id="stop5488" /><stop
           offset="1"
           style="stop-color:#211619"
           id="stop5490" /></linearGradient><polygon
         clip-path="url(#SVGID_53_)"
         points="146.197,378.368 123.001,352.032 149.324,328.823 172.525,355.147 "
         id="polygon5493"
         style="fill:url(#SVGID_54_)" /></g><g
       id="g5505"><defs
         id="defs5498"><rect
           id="SVGID_55_"
           x="85.362999"
           y="316.39001"
           width="249.99001"
           height="248.63699" /></defs><clipPath
         id="SVGID_56_"><use
           xlink:href="#SVGID_55_"
           overflow="visible"
           id="use5500"
           style="overflow:visible"
           x="0"
           y="0"
           width="100%"
           height="100%" /></clipPath><rect
         x="135.285"
         y="365.97198"
         clip-path="url(#SVGID_56_)"
         width="24.945999"
         height="24.775"
         id="rect5503" /></g><g
       id="g5520"><defs
         id="defs5508"><rect
           id="SVGID_57_"
           x="135.285"
           y="390.755"
           width="24.952999"
           height="24.783001" /></defs><clipPath
         id="SVGID_58_"><use
           xlink:href="#SVGID_57_"
           overflow="visible"
           id="use5510"
           style="overflow:visible"
           x="0"
           y="0"
           width="100%"
           height="100%" /></clipPath><linearGradient
         id="SVGID_59_"
         gradientUnits="userSpaceOnUse"
         x1="810.37109"
         y1="4721.3062"
         x2="817.85779"
         y2="4721.3062"
         gradientTransform="matrix(3.9743,-2.9245,-2.9245,-3.9743,10736.43,21535.58)"><stop
           offset="0"
           style="stop-color:#FFFFFF"
           id="stop5513" /><stop
           offset="1"
           style="stop-color:#211619"
           id="stop5515" /></linearGradient><polygon
         clip-path="url(#SVGID_58_)"
         points="144.047,427.448 123.466,399.456 151.473,378.833 172.056,406.829 "
         id="polygon5518"
         style="fill:url(#SVGID_59_)" /></g><rect
       x="135.285"
       y="415.53799"
       width="24.945999"
       height="24.826"
       id="rect5522" /><path
       d="m 123.539,515.015 v -2.904 c 0,-3.137 -1.416,-4.461 -3.07,-4.461 -2.617,0 -3.508,1.324 -3.508,4.125 v 18.896 c 0,2.809 0.891,4.123 3.508,4.123 2.354,0 3.07,-1.314 3.07,-3.766 v -4.512 h 6.49 v 4.322 c 0,5.293 -3.115,9.543 -9.561,9.543 -6.796,0 -9.896,-4.25 -9.896,-9.543 V 511.59 c 0,-5.301 3.1,-9.557 9.896,-9.557 6.445,0 9.561,4.664 9.561,10.246 v 2.734 h -6.49 z"
       id="path5524"
       inkscape:connector-curvature="0"
       style="fill:#ffffff" /><path
       d="m 136.273,539.876 v -37.309 h 5.803 v 12.162 c 2.125,-1.918 3.369,-3.139 6.709,-3.139 3.069,0 4.838,2.23 4.838,5.822 v 22.463 h -5.758 v -21.482 c 0,-1.434 -0.826,-2.07 -2.086,-2.07 -1.221,0 -2.38,0.783 -3.703,1.805 v 21.748 z"
       id="path5526"
       inkscape:connector-curvature="0"
       style="fill:#ffffff" /><path
       d="m 164.762,522.276 v -1.404 c 0,-3.219 1.177,-4.543 3.267,-4.543 2.04,0 3.179,1.324 3.179,4.543 v 1.404 z m 12.272,-0.396 c 0,-6.068 -2.376,-10.289 -9.006,-10.289 -6.657,0 -9.048,4.221 -9.048,10.289 v 8.184 c 0,6.082 2.391,10.318 9.048,10.318 6.454,0 8.882,-4.016 9.006,-9.895 h -5.827 v 0.607 c 0,3.203 -1.139,4.512 -3.179,4.512 -2.09,0 -3.267,-1.309 -3.267,-4.512 v -4 h 12.272 v -5.214 z"
       id="path5528"
       inkscape:connector-curvature="0"
       style="fill:#ffffff" /><path
       d="m 192.938,519.81 c -0.4,-2.215 -1.454,-3.48 -3.346,-3.48 -1.515,0 -2.545,0.777 -2.545,2.211 0,4.32 10.884,6.096 10.884,14.383 0,4.965 -3.43,7.459 -8.093,7.459 -5.137,0 -8.016,-2.902 -8.879,-7.744 l 5.013,-1.383 c 0.395,2.318 1.212,4.352 3.888,4.352 1.515,0 2.588,-0.848 2.588,-2.385 0,-4.818 -10.893,-6.596 -10.893,-14.209 0,-4.379 3.394,-7.422 7.777,-7.422 4.571,0 7.611,3.043 8.496,7.422 z"
       id="path5530"
       inkscape:connector-curvature="0"
       style="fill:#ffffff" /><path
       d="m 213.118,519.81 c -0.415,-2.215 -1.463,-3.48 -3.348,-3.48 -1.476,0 -2.558,0.777 -2.558,2.211 0,4.32 10.918,6.096 10.918,14.383 0,4.965 -3.461,7.459 -8.154,7.459 -5.109,0 -7.954,-2.902 -8.857,-7.744 l 5.085,-1.383 c 0.366,2.318 1.172,4.352 3.832,4.352 1.504,0 2.594,-0.848 2.594,-2.385 0,-4.818 -10.892,-6.596 -10.892,-14.209 0,-4.379 3.429,-7.422 7.777,-7.422 4.611,0 7.608,3.043 8.479,7.422 z"
       id="path5532"
       inkscape:connector-curvature="0"
       style="fill:#ffffff" /><path
       d="m 229.411,523.103 h 2.054 c 3.888,0 5.372,1.932 5.372,5.834 0,3.693 -1.257,5.668 -4.723,5.668 h -2.703 z m 0,-15.284 h 2.441 c 2.855,0 4.216,1.842 4.216,5.293 0,3.115 -1.87,4.752 -4.34,4.752 h -2.317 z m -6.456,32.057 h 10.183 c 7.375,0 10.169,-4.635 10.169,-10.771 0,-4.811 -1.945,-7.457 -5.229,-8.848 3.036,-1.244 4.409,-4.703 4.409,-7.846 0,-6.348 -3.063,-9.844 -9.961,-9.844 h -9.57 v 37.309 z"
       id="path5534"
       inkscape:connector-curvature="0"
       style="fill:#ffffff" /><path
       d="m 259.999,533.04 c -0.979,1.426 -2.272,2.566 -3.875,2.566 -1.737,0 -2.688,-0.674 -2.688,-2.449 0,-2.486 1.294,-4.387 6.563,-7.373 z m -6.182,-12.783 c 0.115,-2.393 0.7,-3.934 3.315,-3.934 1.938,0 2.866,1.271 2.866,3.584 v 1.652 c -8.345,3.15 -12.351,6.508 -12.351,12.563 0,3.592 1.928,6.254 5.889,6.254 2.777,0 4.62,-0.924 6.764,-2.662 0.093,0.67 0.283,1.381 0.319,2.162 h 5.555 c -0.183,-0.973 -0.358,-2.084 -0.358,-2.967 v -17.771 c 0,-5.082 -3.071,-7.547 -8.465,-7.547 -5.445,0 -9.033,3.043 -9.318,8.666 z"
       id="path5536"
       inkscape:connector-curvature="0"
       style="fill:#ffffff" /><path
       d="m 282.307,519.81 c -0.448,-2.215 -1.463,-3.48 -3.34,-3.48 -1.521,0 -2.551,0.777 -2.551,2.211 0,4.32 10.877,6.096 10.877,14.383 0,4.965 -3.393,7.459 -8.145,7.459 -5.057,0 -7.966,-2.902 -8.816,-7.744 l 5.045,-1.383 c 0.352,2.318 1.161,4.352 3.854,4.352 1.497,0 2.628,-0.848 2.628,-2.385 0,-4.818 -10.933,-6.596 -10.933,-14.209 0,-4.379 3.399,-7.422 7.761,-7.422 4.556,0 7.61,3.043 8.517,7.422 z"
       id="path5538"
       inkscape:connector-curvature="0"
       style="fill:#ffffff" /><path
       d="m 297.362,522.276 v -1.404 c 0,-3.219 1.17,-4.543 3.222,-4.543 2.085,0 3.224,1.324 3.224,4.543 v 1.404 z m 12.244,-0.396 c 0,-6.068 -2.375,-10.289 -9.022,-10.289 -6.629,0 -8.996,4.221 -8.996,10.289 v 8.184 c 0,6.082 2.367,10.318 8.996,10.318 6.508,0 8.941,-4.016 9.022,-9.895 h -5.799 v 0.607 c 0,3.203 -1.139,4.512 -3.224,4.512 -2.052,0 -3.222,-1.309 -3.222,-4.512 v -4 h 12.244 v -5.214 z"
       id="path5540"
       inkscape:connector-curvature="0"
       style="fill:#ffffff" /></g></svg>